<svg width="16" height="16" viewBox="0 0 16 16" fill="none" xmlns="http://www.w3.org/2000/svg">
<path d="M8 4.26667C7.11634 4.26667 6.4 4.98301 6.4 5.86667V6.4H9.6V5.86667C9.6 4.98301 8.88366 4.26667 8 4.26667Z" fill="#27B066"/>
<path fill-rule="evenodd" clip-rule="evenodd" d="M8 0C12.4183 0 16 3.58172 16 8C16 12.4183 12.4183 16 8 16C3.58172 16 -2.7141e-06 12.4183 0 8C0 3.58172 3.58172 -2.7141e-06 8 0ZM5.33333 5.86667V6.49104C4.7119 6.71069 4.26667 7.30335 4.26667 8V11.2C4.26667 12.0837 4.98301 12.8 5.86667 12.8H10.1333C11.017 12.8 11.7333 12.0837 11.7333 11.2V8C11.7333 7.30335 11.2881 6.71069 10.6667 6.49104V5.86667C10.6667 4.39391 9.47276 3.2 8 3.2C6.52724 3.2 5.33333 4.39391 5.33333 5.86667Z" fill="#27B066"/>
</svg>
