<svg width="16" height="16" viewBox="0 0 16 16" fill="none" xmlns="http://www.w3.org/2000/svg">
<path d="M2.66667 0C1.19391 0 0 1.19391 0 2.66667V4.8C0 10.9856 5.01441 16 11.2 16H13.3333C14.8061 16 16 14.8061 16 13.3333V11.8592C16 11.2532 15.6576 10.6992 15.1155 10.4282L12.5385 9.13966C11.6677 8.70421 10.613 9.14106 10.3051 10.0648L9.9875 11.0176C9.86682 11.3797 9.49543 11.5952 9.12122 11.5203C6.77896 11.0519 4.9481 9.22104 4.47965 6.87878C4.40481 6.50457 4.62033 6.13318 4.98237 6.0125L6.16491 5.61832C6.95807 5.35394 7.41395 4.52347 7.21117 3.71237L6.58607 1.21194C6.408 0.499676 5.76803 0 5.03384 0H2.66667Z" fill="#27B066"/>
</svg>
